<?xml version="1.0" standalone="no"?><!DOCTYPE svg PUBLIC "-//W3C//DTD SVG 1.1//EN" "http://www.w3.org/Graphics/SVG/1.1/DTD/svg11.dtd"><svg t="1651830045204" class="icon" viewBox="0 0 1024 1024" version="1.1" xmlns="http://www.w3.org/2000/svg" p-id="2078" xmlns:xlink="http://www.w3.org/1999/xlink" width="200" height="200"><defs><style type="text/css">@font-face { font-family: feedback-iconfont; src: url("//at.alicdn.com/t/font_1031158_u69w8yhxdu.woff2?t=1630033759944") format("woff2"), url("//at.alicdn.com/t/font_1031158_u69w8yhxdu.woff?t=1630033759944") format("woff"), url("//at.alicdn.com/t/font_1031158_u69w8yhxdu.ttf?t=1630033759944") format("truetype"); }
</style></defs><path d="M742.4 363.52c11.264 0 20.48-9.216 20.48-20.48s-9.216-20.48-20.48-20.48h-204.8c-11.264 0-20.48 9.216-20.48 20.48s9.216 20.48 20.48 20.48h204.8zM270.5408 317.44l-52.736 52.736a20.52096 20.52096 0 0 0 0 28.9792 20.52096 20.52096 0 0 0 28.9792 0L330.0352 315.904c4.4544-4.4544 6.3488-10.496 5.7856-16.384 0.512-5.8368-1.3312-11.9296-5.7856-16.384L246.784 199.8848a20.52096 20.52096 0 0 0-28.9792 0 20.52096 20.52096 0 0 0 0 28.9792l47.616 47.616H107.52c-11.264 0-20.48 9.216-20.48 20.48s9.216 20.48 20.48 20.48h163.0208zM261.12 537.6c0 11.264 9.216 20.48 20.48 20.48h460.8c11.264 0 20.48-9.216 20.48-20.48s-9.216-20.48-20.48-20.48H281.6c-11.264 0-20.48 9.216-20.48 20.48zM281.6 711.68c-11.264 0-20.48 9.216-20.48 20.48s9.216 20.48 20.48 20.48h363.52c11.264 0 20.48-9.216 20.48-20.48s-9.216-20.48-20.48-20.48H281.6z" fill="#666666" p-id="2079"></path><path d="M855.04 87.04H168.96c-33.792 0-61.44 27.648-61.44 61.44v10.24c0 11.3152 9.1648 20.48 20.48 20.48s20.48-9.1648 20.48-20.48v-10.24c0-11.264 9.216-20.48 20.48-20.48h686.08c11.264 0 20.48 9.216 20.48 20.48v727.04c0 11.264-9.216 20.48-20.48 20.48H168.96c-11.264 0-20.48-9.216-20.48-20.48V440.32c0-11.3152-9.1648-20.48-20.48-20.48s-20.48 9.1648-20.48 20.48v435.2c0 33.792 27.648 61.44 61.44 61.44h686.08c33.792 0 61.44-27.648 61.44-61.44V148.48c0-33.792-27.648-61.44-61.44-61.44z" fill="#666666" p-id="2080"></path></svg>